<?xml version="1.0" encoding="UTF-8" standalone="no"?>
<!-- Created with Inkscape (http://www.inkscape.org/) -->

<svg
   xmlns:dc="http://purl.org/dc/elements/1.1/"
   xmlns:cc="http://creativecommons.org/ns#"
   xmlns:rdf="http://www.w3.org/1999/02/22-rdf-syntax-ns#"
   xmlns:svg="http://www.w3.org/2000/svg"
   xmlns="http://www.w3.org/2000/svg"
   xmlns:xlink="http://www.w3.org/1999/xlink"
   xmlns:sodipodi="http://sodipodi.sourceforge.net/DTD/sodipodi-0.dtd"
   xmlns:inkscape="http://www.inkscape.org/namespaces/inkscape"
   width="171.50577mm"
   height="63.575352mm"
   viewBox="0 0 171.50577 63.575352"
   version="1.1"
   id="svg8"
   inkscape:version="0.92.5 (2060ec1f9f, 2020-04-08)"
   sodipodi:docname="drawing.svg">
  <defs
     id="defs2">
    <linearGradient
       y2="0"
       x2="1"
       y1="0"
       x1="0"
       id="4322e5d5-06d6-4eb9-8ad1-7bf67ad5d9f9"
       gradientTransform="rotate(25)"
       data-v-423bf9ae="">
      <stop
         id="stop3716"
         style="stop-color: rgb(18, 38, 99); stop-opacity: 1;"
         offset="0%"
         data-v-423bf9ae="" />
      <stop
         id="stop3718"
         style="stop-color: rgb(93, 215, 173); stop-opacity: 1;"
         offset="100%"
         data-v-423bf9ae="" />
    </linearGradient>
    <linearGradient
       inkscape:collect="always"
       xlink:href="#4322e5d5-06d6-4eb9-8ad1-7bf67ad5d9f9"
       id="linearGradient3790"
       gradientTransform="scale(1.0854821,0.92124968)"
       x1="0"
       y1="5.7365565"
       x2="91.814445"
       y2="5.7365565"
       gradientUnits="userSpaceOnUse" />
    <linearGradient
       inkscape:collect="always"
       xlink:href="#4322e5d5-06d6-4eb9-8ad1-7bf67ad5d9f9"
       id="linearGradient3792"
       gradientTransform="scale(1.3705353,0.7296419)"
       x1="8.5370417"
       y1="21.864328"
       x2="45.230621"
       y2="21.864328"
       gradientUnits="userSpaceOnUse" />
    <linearGradient
       inkscape:collect="always"
       xlink:href="#4322e5d5-06d6-4eb9-8ad1-7bf67ad5d9f9"
       id="linearGradient3794"
       gradientTransform="scale(1.0837163,0.92275073)"
       x1="8.5853453"
       y1="13.643988"
       x2="87.518921"
       y2="13.643988"
       gradientUnits="userSpaceOnUse" />
    <linearGradient
       inkscape:collect="always"
       xlink:href="#4322e5d5-06d6-4eb9-8ad1-7bf67ad5d9f9"
       id="linearGradient3796"
       gradientTransform="scale(1.0854821,0.92124968)"
       x1="0"
       y1="5.7365565"
       x2="91.814445"
       y2="5.7365565"
       gradientUnits="userSpaceOnUse" />
    <linearGradient
       inkscape:collect="always"
       xlink:href="#4322e5d5-06d6-4eb9-8ad1-7bf67ad5d9f9"
       id="linearGradient3798"
       gradientTransform="scale(1.0854821,0.92124968)"
       x1="0"
       y1="5.7365565"
       x2="91.814445"
       y2="5.7365565"
       gradientUnits="userSpaceOnUse" />
    <linearGradient
       inkscape:collect="always"
       xlink:href="#4322e5d5-06d6-4eb9-8ad1-7bf67ad5d9f9"
       id="linearGradient3800"
       gradientTransform="scale(1.0854821,0.92124968)"
       x1="0"
       y1="5.7365565"
       x2="91.814445"
       y2="5.7365565"
       gradientUnits="userSpaceOnUse" />
  </defs>
  <sodipodi:namedview
     id="base"
     pagecolor="#ffffff"
     bordercolor="#666666"
     borderopacity="1.0"
     inkscape:pageopacity="0.0"
     inkscape:pageshadow="2"
     inkscape:zoom="1.4"
     inkscape:cx="330.87029"
     inkscape:cy="87.813103"
     inkscape:document-units="mm"
     inkscape:current-layer="layer1"
     showgrid="false"
     inkscape:window-width="1318"
     inkscape:window-height="741"
     inkscape:window-x="48"
     inkscape:window-y="339"
     inkscape:window-maximized="1" />
  <metadata
     id="metadata5">
    <rdf:RDF>
      <cc:Work
         rdf:about="">
        <dc:format>image/svg+xml</dc:format>
        <dc:type
           rdf:resource="http://purl.org/dc/dcmitype/StillImage" />
        <dc:title></dc:title>
      </cc:Work>
    </rdf:RDF>
  </metadata>
  <g
     inkscape:label="Layer 1"
     inkscape:groupmode="layer"
     id="layer1"
     transform="translate(-25.122,-117.61262)">
    <g
       id="g3756"
       transform="matrix(0.75559971,0,0,0.70416455,24.383183,117.61262)">
      <g
         transform="matrix(3.5439392,0,0,3.5439392,125.90267,1.2060473)"
         id="deb8603d-ecf2-4666-8349-0d809444b1c7"
         data-v-423bf9ae=""
         style="fill:#000000">
        <path
           id="path3713"
           d="m 6.09,2.79 v 0 0 q 0,0.42 -0.08,0.96 v 0 0 Q 5.92,4.28 5.81,4.79 v 0 0 Q 5.7,5.29 5.56,5.68 v 0 0 Q 5.42,6.08 5.32,6.22 v 0 0 Q 5.24,6.38 5.12,6.58 v 0 0 q -0.39,0.67 -1,1.16 v 0 0 Q 2.9,8.69 1.44,8.33 v 0 0 Q 1.37,8.3 1.29,8.28 v 0 0 Q 1.22,8.26 1.15,8.23 v 0 0 Q 1.12,8.9 1.11,9.16 v 0 0 q 0,0.25 0,0.29 v 0 0 q 0,0.45 0.03,0.75 v 0 0 q 0.04,0.3 0.09,0.48 v 0 0 q 0.06,0.18 0.12,0.28 v 0 0 q 0.06,0.09 0.12,0.11 v 0 0 q 0.11,0.09 0.08,0.23 v 0 0 q -0.04,0.14 -0.19,0.14 v 0 H 1.33 v 0 q -0.01,0 -0.03,0.01 v 0 0 q -0.01,0 -0.04,0 v 0 0 q -0.07,0.03 -0.12,0.03 v 0 0 q -0.05,0 -0.09,0 v 0 0 q -0.32,0 -0.49,-0.12 v 0 0 Q 0.39,11.24 0.31,11.12 v 0 -0.02 0 Q 0.25,10.99 0.2,10.8 v 0 0 Q 0.15,10.61 0.13,10.32 v 0 0 Q 0.04,9.72 0.04,7.67 v 0 0 Q 0.07,7.53 0.07,7.4 v 0 0 q 0,-0.13 0,-0.27 v 0 -0.31 0 Q 0.08,6.75 0.09,6.68 v 0 0 Q 0.1,6.61 0.08,6.54 v 0 -0.02 0 q 0,-0.54 0.02,-1.29 v 0 0 Q 0.13,4.48 0.2,3.53 v 0 0 Q 0.22,3 0.24,2.54 v 0 0 Q 0.27,2.09 0.29,1.82 v 0 H 0.27 v 0 Q 0.32,1.26 0.31,0.7 v 0 L 0.36,0.04 v 0 q 0.03,-0.08 0.06,-0.12 v 0 0 q 0.22,-0.21 0.63,-0.21 v 0 h 0.06 v 0 q 0.49,0 0.64,0.4 v 0 0 Q 1.82,0.07 1.89,0.03 v 0 0 q 0.07,-0.04 0.14,-0.07 v 0 0 q 0.67,-0.31 1.4,-0.3 v 0 0 q 0.73,0.03 1.48,0.38 v 0 0 q 0.47,0.24 0.7,0.61 v 0 0 q 0.24,0.37 0.35,0.77 v 0 0 q 0.1,0.4 0.12,0.77 v 0 0 q 0.01,0.37 0.01,0.6 z m -1.4,1.17 v 0 0 Q 4.8,3.25 4.83,2.69 v 0 0 Q 4.86,2.13 4.79,1.71 v 0 0 Q 4.66,0.92 4.2,0.67 v 0 0 Q 3.36,0.21 2.42,0.77 v 0 0 Q 2.06,0.99 1.67,1.39 v 0 0.02 0 Q 1.5,2.07 1.33,4.14 v 0 0 Q 1.26,4.91 1.23,5.47 v 0 0 Q 1.2,6.03 1.19,6.37 v 0 0 q 0,0.14 0,0.28 v 0 0 q 0,0.14 -0.01,0.28 v 0 0 q -0.02,0.14 0,0.31 v 0 0 q 0.14,0.07 0.28,0.13 v 0 0 q 0.15,0.06 0.32,0.11 v 0 0 Q 2.72,7.73 3.42,7.07 v 0 0 Q 4.07,6.41 4.49,4.91 v 0 0 Q 4.55,4.69 4.6,4.45 v 0 0 Q 4.65,4.21 4.69,3.96 Z m 5.63,7.17 v 0 0 q 0.28,0.13 0.28,0.43 v 0 0 q 0,0.1 -0.07,0.24 v 0 l -0.07,0.11 -0.14,-0.01 v 0 Q 9.91,11.83 9.72,11.81 v 0 0 Q 9.53,11.79 9.46,11.79 v 0 0 q -0.07,0 -0.23,0.03 v 0 0 q -0.16,0.04 -0.48,0.15 v 0 0 q 0.01,0.06 0.01,0.15 v 0 0 q 0,0.09 0.02,0.21 v 0 0 q 0.01,0.24 0.01,0.39 v 0 0 q 0,0.15 0,0.24 v 0 0 q 0,1.77 -0.57,2.68 v 0 0 Q 7.6,16.59 6.4,16.59 v 0 0 q -0.81,0 -1.36,-0.55 v 0 0 Q 4.49,15.48 4.49,14.67 v 0 0 q 0,-1.2 1.46,-2.24 v 0 0 Q 6.97,11.7 7.9,11.48 v 0 0 q 0,-0.2 -0.02,-0.49 v 0 0 Q 7.85,10.7 7.83,10.32 v 0 0 Q 7.8,10.16 7.79,10.05 v 0 0 Q 7.78,9.94 7.77,9.83 v 0 0 Q 7.74,9.9 7.72,9.95 v 0 0 Q 7.7,10 7.67,10.07 v 0 H 7.66 v 0 q -0.3,0.6 -0.79,0.6 v 0 0 q -0.53,0 -0.86,-0.55 v 0 0 Q 5.82,9.79 5.75,9.35 v 0 0 Q 5.6,9.74 5.47,9.98 v 0 0 q -0.12,0.24 -0.23,0.37 v 0 0 q -0.12,0.14 -0.21,0.18 v 0 0 q -0.09,0.04 -0.17,0.04 v 0 0 q -0.37,0 -0.46,-0.13 v 0 0 Q 4.31,10.32 4.31,10.22 v 0 0 q 0,-0.15 0.07,-0.23 v 0 0 Q 4.44,9.91 4.49,9.88 v 0 L 4.51,9.87 4.72,9.76 h 0.03 v 0 Q 4.76,9.74 4.8,9.68 v 0 0 Q 4.84,9.62 4.92,9.46 v 0 0 Q 5,9.31 5.1,9.05 v 0 0 Q 5.19,8.79 5.33,8.39 v 0 0 Q 5.68,7.32 5.96,6.17 v 0 0 q 0,-0.02 0.01,-0.04 v 0 0 Q 5.98,6.12 5.98,6.09 v 0 0 Q 6.03,5.73 6.06,5.6 v 0 0 Q 6.08,5.47 6.1,5.42 v 0 0 Q 6.13,5.35 6.23,5.25 v 0 0 q 0.1,-0.1 0.31,-0.1 v 0 0 q 0.21,0 0.33,0.13 v 0 0 Q 6.9,5.32 6.94,5.4 v 0 0 q 0.03,0.07 0.03,0.19 v 0 0 Q 6.86,6.37 6.8,7.11 v 0 0 Q 6.68,8.27 6.68,8.92 v 0 0 q 0,0.59 0.08,0.79 v 0 0 q 0.07,0.2 0.1,0.22 v 0 0 Q 6.89,9.9 6.97,9.8 v 0 0 Q 7.04,9.7 7.17,9.39 v 0 0 Q 7.28,9.11 7.4,8.73 v 0 0 Q 7.52,8.34 7.64,7.84 v 0 0 Q 7.7,7.39 7.78,6.72 v 0 0 Q 7.87,6.05 7.99,5.12 v 0 0 Q 8.06,4.61 8.58,4.56 v 0 0 Q 8.6,4.55 8.65,4.55 v 0 0 q 0.18,0 0.28,0.11 v 0 0 q 0.1,0.11 0.1,0.3 v 0 0 q 0,0.19 -0.08,0.56 v 0 0 Q 8.88,5.89 8.71,6.48 v 0 0 Q 8.68,6.57 8.66,6.75 v 0 0 Q 8.64,6.94 8.62,7.29 v 0 0 Q 8.61,7.64 8.6,8.17 v 0 0 q 0,0.52 0,1.29 v 0 0 q 0.01,0.33 0.02,0.66 v 0 0 q 0,0.34 0.03,0.69 v 0 0 q 0,0.15 0.01,0.26 v 0 0 q 0.01,0.1 0.01,0.17 v 0 0 q 0.07,-0.03 0.15,-0.05 v 0 0 q 0.08,-0.02 0.2,-0.05 v 0 0 q 0.43,-0.12 0.71,-0.12 v 0 0 q 0.36,0 0.59,0.11 z m -2.38,1.92 v -0.81 0 q -0.13,0.04 -0.25,0.09 v 0 0 q -0.13,0.05 -0.24,0.1 v 0 H 7.43 v 0 Q 6.61,12.8 6.08,13.36 v 0 0 q -0.72,0.7 -0.72,1.45 v 0 0 q 0,0.44 0.28,0.76 v 0 0 q 0.27,0.31 0.62,0.31 v 0 0 q 0.7,0 1.16,-0.77 v 0 0 Q 7.94,14.28 7.94,13.05 Z M 12.82,2.66 v 0 0 q 0.2,0.03 0.2,0.21 v 0 0.1 0 q 0,0.07 -0.04,0.12 v 0 0 Q 12.94,3.15 12.8,3.21 v 0 0 q -0.14,0.05 -0.63,0.14 v 0 0 q -0.33,0.07 -0.54,0.08 v 0 0 q -0.21,0.01 -0.36,0.01 v 0 l -0.43,0.03 v 0 q -0.03,0.2 -0.07,0.62 v 0 0 q -0.03,0.43 -0.1,1.06 v 0 0 q -0.06,0.53 -0.09,0.87 v 0 0 q -0.02,0.34 -0.04,0.53 v 0 0 q -0.03,0.2 -0.03,0.28 v 0 0 Q 10.5,6.92 10.5,6.94 v 0 0 q 0,0.68 0.01,1.09 v 0 0 q 0,0.41 0.02,0.57 v 0 0 q 0.04,0.44 0.12,0.58 v 0 0 q 0.07,0.14 0.1,0.14 v 0 0 Q 10.81,9.3 10.86,9.23 v 0 0 Q 10.92,9.16 11,9.03 v 0 0 Q 11.07,8.9 11.19,8.67 v 0 0 q 0.15,-0.38 0.33,-0.96 v 0 0 q 0.17,-0.58 0.35,-1.35 v 0 0 q 0.04,-0.19 0.09,-0.31 v 0 0 Q 12,5.92 12.03,5.82 v 0 0 q 0.02,-0.07 0.09,-0.18 v 0 0 q 0.06,-0.11 0.2,-0.11 v 0 0 q 0.13,0 0.24,0.09 v 0 0 q 0.11,0.09 0.11,0.33 v 0 0 q 0,0.27 -0.13,0.8 v 0 0 q -0.12,0.54 -0.4,1.38 v 0 0 q -0.37,1.08 -0.71,1.59 v 0 0 q -0.34,0.51 -0.72,0.51 v 0 0 q -0.53,0 -0.85,-0.81 v 0 0 Q 9.58,8.69 9.58,7.62 v 0 0 q 0,-0.35 0.09,-1.35 v 0 0 Q 9.76,5.28 9.95,3.5 v 0 0 Q 9.83,3.53 9.72,3.49 v 0 0 Q 9.6,3.46 9.56,3.43 v 0 0 Q 9.53,3.42 9.49,3.37 v 0 0 Q 9.45,3.33 9.34,3.29 v 0 0 Q 9.14,3.22 9.09,3.12 v 0 0 Q 9.04,3.01 9.04,2.94 v 0 0 q 0,-0.04 0.05,-0.15 v 0 0 Q 9.14,2.69 9.42,2.63 v 0 0 Q 9.51,2.62 9.56,2.61 v 0 0 Q 9.62,2.6 9.67,2.6 v 0 0 Q 9.73,2.59 9.81,2.58 v 0 0 q 0.07,0 0.2,-0.02 v 0 0 q 0.01,-0.15 0.03,-0.38 v 0 0 q 0.01,-0.22 0.03,-0.51 v 0 L 10,1.43 v 0 Q 10,1.34 10.01,1.3 v 0 0 q 0.11,-0.22 0.35,-0.22 v 0 0 q 0.25,0 0.71,0.29 v 0 0 q 0.09,0.07 0.09,0.17 v 0 0.32 0.04 0 Q 11.13,2.06 11.1,2.22 v 0 0 q -0.04,0.16 -0.08,0.36 v 0 0 q 0.1,0 0.12,0 v 0 0 q 0.02,0 0.03,0 v 0 0 q 0.02,0.01 0.07,0.02 v 0 0 q 0.06,0 0.25,0 v 0 0 q 0.19,0 0.29,0.01 v 0 0 q 0.11,0.01 0.23,0.02 v 0 0 q 0.11,0 0.3,0.01 v 0 0 q 0.18,0.01 0.51,0.02 z m 3.69,3 v 0 0 q 0.22,0 0.22,0.4 v 0 0 q 0,0.03 -0.01,0.09 v 0 0 q 0,0.05 -0.05,0.26 v 0 0 q -0.05,0.21 -0.16,0.61 v 0 0 q -0.1,0.4 -0.3,1.1 v 0 0 q -0.33,1.22 -0.43,1.46 v 0 0 q -0.31,0.77 -0.84,0.77 v 0 0 q -1.01,0 -1.18,-1.87 v 0 -0.01 L 13.75,8.26 v -0.99 0 q -0.13,0.49 -0.31,1.24 v 0 0 q -0.18,0.76 -0.45,1.92 v 0 l -0.01,0.08 -0.07,0.05 v 0 q -0.16,0.09 -0.32,0.09 v 0 0 q -0.41,0 -0.61,-0.63 v 0 0 Q 11.79,9.38 11.79,8.01 v 0 0 q 0,-0.37 0.08,-1.26 v 0 0 Q 11.96,5.87 12.14,4.4 v 0 0 Q 12.31,2.95 12.4,2.02 v 0 0 q 0.09,-0.93 0.09,-1.33 v 0 -0.47 L 12.5,0.18 v 0 q 0.06,-0.11 0.2,-0.22 v 0 0 q 0.14,-0.11 0.42,-0.11 v 0 h 0.04 v 0 q 0.49,0.02 0.49,0.46 v 0 0 q 0,0.26 -0.1,0.57 v 0 0 q -0.12,0.37 -0.17,0.67 v 0 0 q -0.35,2.17 -0.52,3.78 v 0 0 q -0.18,1.61 -0.18,2.69 v 0 0 q 0.02,0.03 0.02,0.07 v 0 0 q 0,0.04 0.01,0.11 v 0 0 q 0,0.06 0.02,0.14 v 0 0.03 0 Q 12.8,8.09 12.89,7.76 v 0 0 q 0.09,-0.34 0.2,-0.75 v 0 0 q 0.24,-0.95 0.38,-1.5 v 0 0 q 0.14,-0.55 0.17,-0.72 v 0 0 q 0.07,-0.35 0.21,-0.46 v 0 0 Q 14,4.23 14.14,4.23 v 0 0 q 0.1,0 0.26,0.07 v 0 0 q 0.16,0.07 0.51,0.38 v 0 l 0.08,0.07 -0.01,0.11 v 0 q -0.41,2.15 -0.41,3.53 v 0 0 q 0,0.46 0.08,0.73 v 0 0 q 0.08,0.27 0.2,0.27 v 0 0 q 0.02,0 0.1,-0.07 v 0 0 q 0.09,-0.08 0.23,-0.37 v 0 0 q 0.11,-0.24 0.26,-0.6 v 0 0 Q 15.6,7.99 15.72,7.52 v 0 0 q 0.07,-0.25 0.18,-0.6 v 0 0 q 0.12,-0.34 0.23,-0.77 v 0 0 q 0.03,-0.12 0.1,-0.31 v 0 0 Q 16.31,5.66 16.51,5.66 Z M 20.2,5.53 v 0 0 q 0.34,0 0.34,0.34 v 0 0 q 0,0.36 -0.1,0.77 v 0 0 q -0.1,0.42 -0.31,0.88 v 0 0 q -0.4,0.91 -1.09,0.91 v 0 0 Q 19,8.43 18.93,8.41 v 0 0 Q 18.86,8.39 18.66,8.32 v 0 0 Q 18.63,8.46 18.6,8.6 v 0 0 q -0.04,0.15 -0.08,0.32 v 0 0.03 0 Q 18.4,9.31 18.3,9.55 v 0 0 q -0.1,0.24 -0.18,0.38 v 0 0 q -0.37,0.58 -0.91,0.58 v 0 0 q -0.68,0 -1,-0.67 v 0 0 Q 15.92,9.24 15.92,8.06 v 0 0 q 0,-1.4 0.22,-1.94 v 0 -0.09 0 Q 16.13,5.95 16.13,5.89 v 0 0 q 0,-0.07 0,-0.12 v 0 -0.02 0 q 0.03,-0.21 0.11,-0.29 v 0 0 Q 16.25,5.4 16.28,5.28 v 0 0 q 0.03,-0.13 0.1,-0.41 v 0 0 q 0.04,-0.21 0.13,-0.33 v 0 0 Q 16.6,4.41 16.7,4.34 v 0 0 q 0.1,-0.07 0.2,-0.09 v 0 0 Q 17,4.23 17.08,4.23 v 0 0 q 0.43,0 0.92,0.36 v 0 0 q 0.49,0.35 0.65,0.79 v 0 0 q 0.01,0.05 0.03,0.16 v 0 0 q 0.02,0.12 0.04,0.35 v 0 0 q 0.01,0.23 0.03,0.62 v 0 0 q 0.01,0.39 0.01,0.99 v 0 0 q 0.07,0.06 0.17,0.06 v 0 0 q 0.12,0 0.28,-0.07 v 0 0 Q 19.38,7.42 19.53,7.1 v 0 0 q 0.03,-0.09 0.1,-0.33 v 0 0 q 0.08,-0.25 0.21,-0.82 v 0 0 Q 19.92,5.53 20.2,5.53 Z m -2.66,3.64 v 0 0 q 0.21,-0.46 0.27,-0.72 v 0 0 q 0.07,-0.26 0.07,-0.37 v 0 0 q 0,-0.2 -0.03,-0.46 v 0 0 Q 17.82,7.35 17.77,7.03 v 0 0 Q 17.68,6.58 17.66,6.41 v 0 0 Q 17.64,6.24 17.64,6.17 v 0 0 q 0,-0.07 0,-0.15 v 0 0 q 0,-0.08 0.03,-0.2 v 0 0 q 0.01,-0.11 0.01,-0.19 v 0 0 q 0,-0.07 0,-0.11 v 0 0 q 0,-0.2 -0.07,-0.26 v 0 0 Q 17.54,5.19 17.43,5.19 v 0 0 q -0.01,0.02 -0.05,0.07 v 0 0 Q 17.35,5.32 17.3,5.45 v 0 0 q -0.05,0.14 -0.12,0.37 v 0 0 q -0.06,0.24 -0.13,0.62 v 0 0 q -0.11,0.59 -0.17,1.03 v 0 0 q -0.05,0.44 -0.05,0.76 v 0 0 q 0,0.2 0.01,0.44 v 0 0 q 0.02,0.23 0.06,0.45 v 0 0 q 0.05,0.22 0.14,0.36 v 0 0 q 0.08,0.15 0.22,0.17 v 0 0 q 0.03,-0.03 0.09,-0.12 v 0 0 Q 17.42,9.44 17.54,9.17 Z M 24.37,5.6 v 0 0 q 0.06,0 0.19,0.06 v 0 0 q 0.14,0.07 0.14,0.36 v 0 0 q 0,0.46 -0.55,2.1 v 0 0 Q 23.8,9.2 23.49,9.8 v 0 0 q -0.33,0.64 -0.68,0.64 v 0 0 q -0.75,0 -0.96,-1.23 v 0 0 Q 21.81,9.02 21.78,8.68 v 0 0 Q 21.74,8.34 21.71,7.85 v 0 0 Q 21.63,8.2 21.52,8.63 v 0 0 q -0.11,0.43 -0.25,0.95 v 0 0 q -0.03,0.07 -0.07,0.2 v 0 0 q -0.05,0.13 -0.12,0.26 v 0 0 q -0.07,0.14 -0.19,0.24 v 0 0 q -0.11,0.09 -0.28,0.09 v 0 0 q -0.09,0 -0.21,-0.02 v 0 0 q -0.11,-0.03 -0.23,-0.12 v 0 0 Q 20.06,10.15 19.97,10 v 0 0 Q 19.88,9.84 19.84,9.58 v 0 -0.02 0 Q 19.82,9.28 19.81,8.99 v 0 0 Q 19.8,8.71 19.78,8.43 v 0 0 q -0.04,-0.62 0,-1.22 v 0 0 Q 19.8,6.99 19.8,6.87 v 0 0 q 0.01,-0.11 0.02,-0.16 v 0 L 19.71,6.47 v 0 Q 19.68,6.41 19.68,6.37 v 0 0 q 0.03,-0.31 0.05,-0.43 v 0 0 q 0.02,-0.12 0.05,-0.17 v 0 0 Q 19.91,5.4 20.34,5.4 v 0 0 q 0.24,0 0.37,0.13 v 0 0 q 0.12,0.13 0.12,0.34 v 0 0 q 0,0.02 -0.01,0.09 v 0 0 Q 20.8,6.02 20.73,6.27 v 0 0 q -0.04,0.14 -0.07,0.25 v 0 0 q -0.02,0.12 -0.02,0.23 v 0 0 q 0,0.15 0,0.38 v 0 0 q 0,0.22 -0.02,0.5 v 0 0 q 0,0.28 -0.01,0.46 v 0 0 q 0,0.18 0,0.27 v 0 0 q 0,0.47 0.04,0.66 v 0 V 9 9 q 0.11,-0.4 0.18,-0.68 v 0 0 Q 20.9,8.04 20.97,7.85 v 0 0 q 0.42,-1.3 0.51,-2.28 v 0 0 q 0.04,-0.74 0.29,-0.89 v 0 0 Q 21.83,4.63 21.9,4.63 v 0 0 q 0.58,0.05 0.77,0.26 v 0 0 q 0.18,0.22 0.18,0.43 v 0 0.04 0 q -0.02,0.03 -0.04,0.23 v 0 0 q -0.03,0.19 -0.13,0.77 v 0 0 q -0.07,0.5 -0.11,0.93 v 0 0 q -0.04,0.42 -0.04,0.79 v 0 0 q 0,0.46 0.02,0.74 v 0 0 q 0.03,0.28 0.07,0.43 v 0 0 q 0.05,0.14 0.08,0.19 v 0 0 q 0.04,0.05 0.05,0.05 v 0 0 q 0.01,-0.01 0.06,-0.06 v 0 0 q 0.05,-0.05 0.14,-0.2 v 0 0 q 0.08,-0.16 0.21,-0.44 v 0 0 q 0.12,-0.28 0.28,-0.74 v 0 0 Q 23.59,7.56 23.72,7.1 v 0 0 q 0.12,-0.46 0.22,-0.88 v 0 0 Q 24,5.98 24.09,5.79 v 0 0 Q 24.18,5.6 24.37,5.6 Z"
           inkscape:connector-curvature="0" />
      </g>
      <g
         transform="matrix(1.0640306,0,0,1.0640306,0.97778841,-5.338389)"
         id="a6c5ac28-301f-4d07-9614-ace6055a4006"
         data-v-423bf9ae=""
         style="fill:url(#linearGradient3800);stroke:none">
        <switch
           id="switch3731"
           style="fill:url(#linearGradient3798)">
          <g
             id="g3729"
             style="fill:url(#linearGradient3796)">
            <path
               id="path3723"
               d="M 99.406,58.651 A 14.456,14.456 0 0 0 98.415,55.604 15.57,15.57 0 0 0 97.44,53.791 c 0.474,-0.758 0.864,-1.579 1.102,-2.455 a 9.233,9.233 0 0 0 0.232,-3.824 C 98.407,45.016 97.27,42.88 95.973,40.993 94.655,39.104 93.122,37.432 91.494,35.888 a 46.713,46.713 0 0 0 -5.019,-4.122 c -0.509,-2.754 -1.632,-5.4 -3.218,-7.719 -1.62,-2.385 -3.683,-4.437 -5.946,-6.183 -2.268,-1.75 -4.738,-3.208 -7.306,-4.442 C 67.537,12.252 65.037,11.276 62.35,10.527 60.795,8.815 58.87,7.415 56.733,6.552 54.469,5.625 52.045,5.261 49.682,5.286 47.312,5.307 44.987,5.694 42.744,6.298 a 35.084,35.084 0 0 0 -5.206,1.867 c -3.323,-0.24 -6.708,-0.304 -10.078,0.2 -3.404,0.492 -6.789,1.567 -9.842,3.321 -3.052,1.739 -5.724,4.24 -7.525,7.252 -1.775,2.937 -2.81,6.237 -2.852,9.651 -1.99,1.681 -3.551,3.833 -4.696,6.154 a 26.467,26.467 0 0 0 -1.499,3.715 c -0.401,1.286 -0.8,2.545 -0.983,3.946 L 0,42.438 v 0.073 c 0,3.992 0.58,8.081 2.142,11.894 a 21.767,21.767 0 0 0 3.135,5.34 22.257,22.257 0 0 0 4.532,4.24 c 3.382,2.396 7.311,3.841 11.272,4.64 a 40.96,40.96 0 0 0 6.012,0.744 c 1.893,0.046 3.794,-0.119 5.631,-0.83 1.554,3.317 4.022,6.067 6.721,8.409 a 44.446,44.446 0 0 0 4.489,3.379 45.426,45.426 0 0 0 4.769,2.764 c 1.075,1.243 2.459,2.179 3.932,2.815 1.516,0.658 3.118,1.038 4.725,1.25 1.607,0.211 3.226,0.258 4.833,0.191 a 32.888,32.888 0 0 0 4.536,-0.504 c 1.487,1.21 3.183,2.248 5.117,2.742 1.006,0.25 2.067,0.354 3.122,0.234 1.067,-0.135 2.063,-0.411 3.059,-1.077 L 77.939,88.8 c 2.765,-1.485 5.412,-3.37 7.438,-5.921 a 15.196,15.196 0 0 0 1.654,-2.565 c 0.972,-0.51 1.899,-1.123 2.71,-1.929 0.627,-0.631 1.171,-1.393 1.475,-2.282 0.245,-0.757 0.325,-1.545 0.132,-2.371 1.564,-0.995 3.064,-2.133 4.384,-3.509 1.404,-1.455 2.605,-3.206 3.296,-5.222 0.695,-2.009 0.817,-4.248 0.378,-6.35 z M 34.022,68.666 c 0.099,0.019 0.197,0.047 0.295,0.057 a 4.266,4.266 0 0 0 1.743,-0.158 29.67,29.67 0 0 0 1.211,3.092 23.471,23.471 0 0 0 1.912,3.403 c 0.105,0.152 0.218,0.3 0.328,0.449 -2.19,-1.988 -4.154,-4.251 -5.489,-6.843 z M 44.355,79.26 c 0.37,0.103 0.746,0.18 1.131,0.206 0.041,0.003 0.073,-0.021 0.109,-0.035 0.124,0.292 0.257,0.579 0.398,0.863 -0.484,-0.296 -0.973,-0.587 -1.445,-0.897 -0.065,-0.044 -0.127,-0.093 -0.193,-0.137 z m 32.93,8.355 -0.036,0.021 -0.052,0.037 c -0.613,0.441 -1.529,0.774 -2.389,0.891 a 7.176,7.176 0 0 1 -2.679,-0.141 c -1.779,-0.425 -3.43,-1.404 -4.894,-2.594 v -10e-4 l -0.207,-0.167 -0.265,0.052 c -1.498,0.29 -3.071,0.455 -4.619,0.521 a 27.125,27.125 0 0 1 -4.642,-0.183 c -1.528,-0.202 -3.034,-0.563 -4.425,-1.167 -1.389,-0.602 -2.654,-1.465 -3.611,-2.603 l -0.075,-0.089 -0.114,-0.056 c -0.812,-0.4 -1.62,-0.838 -2.416,-1.302 a 16.38,16.38 0 0 1 -1.284,-3.312 15.806,15.806 0 0 1 -0.543,-4.143 c 0.003,-2.787 0.876,-5.52 2.398,-7.825 a 0.545,0.545 0 0 0 -0.11,-0.719 l -0.034,-0.028 c -1.24,-1.033 -2.359,-2.354 -3.287,-3.726 a 20.052,20.052 0 0 1 -2.246,-4.44 C 40.631,53.52 40.358,50.152 40.801,46.889 a 1.059,1.059 0 0 0 -0.45,-1.015 l -0.172,-0.118 h -0.001 a 14.899,14.899 0 0 1 -2.761,-1.547 c -0.857,-0.617 -1.646,-1.336 -2.156,-2.193 -0.516,-0.848 -0.655,-1.865 -0.254,-2.833 0.388,-0.968 1.172,-1.809 2.029,-2.524 A 0.12804784,0.12804784 0 0 0 36.888,36.45 c -0.971,0.598 -1.926,1.325 -2.562,2.396 -0.666,1.059 -0.716,2.542 -0.204,3.715 0.488,1.188 1.294,2.153 2.156,2.997 a 16.882,16.882 0 0 0 2.229,1.801 c -0.172,3.373 0.353,6.8 1.67,9.898 a 21.67,21.67 0 0 0 2.681,4.643 c 0.992,1.293 2.086,2.466 3.385,3.496 -1.375,2.425 -2.113,5.222 -2.013,7.995 0.02,0.638 0.085,1.272 0.181,1.9 -0.549,-0.049 -1.034,-0.228 -1.399,-0.529 -0.362,-0.31 -0.633,-0.725 -0.813,-1.217 a 5.94,5.94 0 0 1 -0.339,-1.589 8.932,8.932 0 0 1 -0.029,-0.93 c 0.614,-0.392 1.193,-0.918 1.551,-1.643 0.51,-1.038 0.417,-2.138 0.157,-2.997 -0.263,-0.881 -0.682,-1.635 -1.145,-2.336 a 14.144,14.144 0 0 0 -1.563,-1.938 0.276,0.276 0 0 0 -0.433,0.337 l 0.007,0.011 c 0.816,1.318 1.502,2.823 1.633,4.226 0.063,0.696 -0.083,1.312 -0.399,1.673 -0.31,0.367 -0.814,0.598 -1.437,0.732 v 0.001 l -0.281,0.147 a 1.054,1.054 0 0 0 -0.558,1.004 c 0.055,0.784 0.184,1.427 0.374,2.126 0.193,0.684 0.457,1.362 0.849,2.003 0.383,0.637 0.938,1.237 1.637,1.621 0.706,0.385 1.506,0.486 2.217,0.413 a 0.539,0.539 0 0 0 0.169,-0.048 c 0.099,0.451 0.21,0.9 0.345,1.342 0.126,0.404 0.268,0.802 0.419,1.195 -1.153,-0.162 -2.226,-0.704 -3.119,-1.463 -0.94,-0.793 -1.719,-1.779 -2.387,-2.831 A 22.604,22.604 0 0 1 38.154,71.262 27.694,27.694 0 0 1 36.939,67.716 0.53,0.53 0 0 0 36.486,67.327 L 36.312,67.308 C 35.067,67.177 34.056,66.974 33.451,66.335 33.142,66.017 32.907,65.58 32.736,65.076 a 7.72,7.72 0 0 1 -0.304,-1.608 v -0.001 l 0.002,-0.042 A 0.771,0.771 0 0 0 31.887,62.66 L 27.89,61.457 27.84,61.444 a 0.727,0.727 0 0 0 -0.725,0.216 c -1.015,1.126 -2.179,2.165 -3.523,2.631 -1.336,0.503 -2.815,0.103 -3.939,-0.909 -0.603,-0.524 -1.122,-1.155 -1.586,-1.837 a 0.986,0.986 0 0 0 -0.339,-0.533 18.33,18.33 0 0 1 -0.773,-1.375 25.126,25.126 0 0 1 -1.689,-4.436 0.1,0.1 0 0 0 -0.114,-0.072 0.098,0.098 0 0 0 -0.076,0.115 25.51,25.51 0 0 0 1.397,4.611 c 0.132,0.314 0.276,0.626 0.423,0.937 -1.239,0.059 -2.475,-0.015 -3.655,-0.3 C 12.017,60.191 10.703,59.641 9.767,58.794 7.88,57.104 7,54.304 7,51.646 V 51.634 C 7,51.559 7.105,51.491 7.028,51.48 6.946,51.467 6.947,51.524 6.935,51.607 6.832,52.284 6.834,52.967 6.856,53.652 6.828,53.546 6.802,53.444 6.718,53.361 L 6.713,53.346 A 7.37,7.37 0 0 1 5.553,51.795 6.134,6.134 0 0 1 4.856,49.974 C 4.664,49.097 4.768,48.183 5.088,47.33 c 0.429,0.75 1.131,1.406 1.963,1.594 A 0.257,0.257 0 0 0 7.274,48.478 C 6.1,47.443 5.916,45.992 5.794,44.449 5.7,42.902 6,41.29 6,39.651 v -0.01 C 6,39.539 5.892,39.44 5.795,39.392 5.666,39.329 5.48,39.382 5.416,39.511 5.034,40.288 4.776,41.1 4.599,41.938 a 10.537,10.537 0 0 0 -0.232,2.579 c 0.022,0.68 0.129,1.376 0.37,2.048 -0.625,1.041 -0.948,2.305 -0.784,3.548 0.083,0.76 0.312,1.494 0.625,2.18 a 8.55,8.55 0 0 0 1.254,1.977 c 0.251,0.251 0.658,0.25 0.909,-0.002 a 0.624,0.624 0 0 0 0.171,-0.373 c 0.034,0.631 0.115,1.261 0.256,1.887 0.314,1.378 0.949,2.731 1.939,3.83 a 9.186,9.186 0 0 0 3.676,2.497 C 14.17,62.604 15.623,63 17.059,63 h 0.008 c 0.034,0 0.069,-0.094 0.105,-0.096 0.273,-0.016 0.513,-0.187 0.685,-0.374 a 9.624,9.624 0 0 0 1.216,1.513 c 0.599,0.594 1.332,1.1 2.193,1.373 0.858,0.279 1.814,0.269 2.67,0.033 1.564,-0.43 2.826,-1.373 3.935,-2.391 l 2.968,0.901 c -0.026,0.541 0.023,1.06 0.155,1.604 0.12,0.512 0.333,1.033 0.651,1.508 C 28.239,66.537 24.905,66.685 21.604,65.988 17.912,65.285 14.327,63.989 11.293,61.885 8.253,59.796 5.864,56.87 4.348,53.485 2.836,50.11 2.19,46.336 2.085,42.55 A 25.21,25.21 0 0 1 2.76,38.958 c 0.319,-1.21 0.723,-2.4 1.221,-3.547 0.998,-2.29 2.37,-4.427 4.179,-6.153 L 8.351,29.075 8.348,28.851 V 28.85 c 0.386,-2.588 1.357,-5.125 2.715,-7.357 a 1.15,1.15 0 0 0 0.638,-0.29 l 0.04,-0.038 c 0.95,-0.905 2.219,-1.759 3.488,-2.419 a 17.211,17.211 0 0 1 4.099,-1.514 c 2.862,-0.669 5.936,-0.526 8.832,0.356 a 0.19137659,0.19137659 0 0 0 0.13,-0.36 c -2.835,-1.209 -6.034,-1.729 -9.192,-1.34 -1.384,0.164 -2.751,0.5 -4.075,0.971 a 21.062,21.062 0 0 1 3.971,-2.674 c 2.766,-1.442 5.825,-2.296 8.951,-2.872 a 52.402,52.402 0 0 1 9.604,-0.827 c 0.519,0.044 1.085,0.12 1.622,0.212 0.546,0.091 1.082,0.219 1.613,0.343 -1.12,0.172 -2.201,0.517 -3.205,1 -0.474,0.228 -0.925,0.49 -1.361,0.772 a 8.545,8.545 0 0 0 -1.668,-1.002 8.453,8.453 0 0 0 -1.882,-0.612 6.74,6.74 0 0 0 -3.853,0.348 0.19085138,0.19085138 0 0 0 0.124,0.361 6.148,6.148 0 0 1 3.536,0.064 7.51,7.51 0 0 1 2.747,1.572 15.95,15.95 0 0 0 -2.693,2.698 0.263,0.263 0 0 0 0.401,0.34 c 1.43,-1.556 3.143,-2.851 5.063,-3.588 0.957,-0.369 1.958,-0.6 2.962,-0.67 a 9.255,9.255 0 0 1 1.499,0.013 c 0.247,0.023 0.492,0.056 0.73,0.101 l 0.35,0.077 0.165,0.045 0.073,0.023 0.015,0.005 c -0.04,-0.015 -0.089,-0.04 -0.062,-0.026 0.057,0.029 0.117,0.035 0.176,0.049 l 0.217,0.237 0.245,-0.202 a 10.294,10.294 0 0 1 3.792,-0.148 c 1.242,0.189 2.401,0.655 3.33,1.387 1.882,1.47 2.734,3.921 3.027,6.413 l 0.142,1.213 1.087,-0.078 c 0.811,0.134 1.818,0.385 2.705,0.7 0.909,0.318 1.809,0.68 2.668,1.125 1.711,0.896 3.33,1.992 4.727,3.351 1.385,1.363 2.645,2.891 3.642,4.613 1.043,1.696 1.864,3.549 2.594,5.468 l 0.021,0.056 c -0.863,0.152 -1.709,0.311 -2.554,0.496 -1.288,0.297 -2.562,0.65 -3.79,1.155 -0.584,0.224 -1.224,0.396 -1.873,0.602 C 63.823,38.985 63.765,39 63.7,39 h -0.029 a 8.413,8.413 0 0 1 -2.368,-0.367 c -0.77,-0.235 -1.496,-0.619 -2.082,-1.147 a 4.474,4.474 0 0 1 -1.268,-1.997 c -0.249,-0.774 -0.312,-1.623 -0.27,-2.464 a 0.284,0.284 0 0 0 -0.245,-0.297 0.28,0.28 0 0 0 -0.312,0.243 c -0.108,0.885 -0.109,1.806 0.112,2.709 0.214,0.9 0.672,1.772 1.338,2.452 0.662,0.687 1.494,1.179 2.362,1.513 0.393,0.147 0.788,0.258 1.189,0.352 -0.06,0.057 -0.123,0.109 -0.179,0.17 -0.913,0.914 -1.558,2.149 -1.711,3.417 -0.663,0.065 -1.303,0.162 -1.944,0.307 -0.861,0.199 -1.706,0.477 -2.514,0.839 -1.609,0.72 -3.083,1.878 -3.928,3.425 a 0.193,0.193 0 0 0 0.327,0.203 c 0.953,-1.361 2.402,-2.253 3.943,-2.753 0.775,-0.25 1.575,-0.42 2.385,-0.516 0.8,-0.095 1.648,-0.131 2.403,-0.08 a 0.71,0.71 0 0 0 0.726,-0.5 l 0.027,-0.091 c 0.513,-1.087 1.029,-2.025 1.767,-2.875 0.385,-0.405 0.758,-0.833 1.146,-1.326 0.388,-0.492 0.863,-0.95 1.432,-1.226 a 11.839,11.839 0 0 1 3.669,-0.931 c 1.253,-0.12 2.571,-0.085 3.758,0.21 l 0.012,0.003 a 0.892,0.892 0 0 0 0.354,0.015 c 0.092,-0.014 0.172,-0.054 0.251,-0.093 a 19.553,19.553 0 0 1 2.779,2.545 c 1.281,1.435 2.313,3.06 2.982,4.797 0.669,1.737 0.963,3.577 0.894,5.404 -0.065,1.83 -0.489,3.642 -1.14,5.381 l -0.284,0.759 0.612,0.895 v 10e-4 a 30.578,30.578 0 0 1 4.773,7.336 c 1.238,2.666 2.023,5.551 2.013,8.44 a 13.509,13.509 0 0 1 -1.492,6.203 c -0.088,0.04 -0.175,0.081 -0.263,0.117 l 0.171,0.052 a 13.875,13.875 0 0 1 -1.075,1.727 c -1.719,2.378 -4.117,4.277 -6.736,5.763 z M 97.027,64.401 c -0.428,1.708 -1.326,3.328 -2.496,4.762 -1.167,1.441 -2.588,2.712 -4.117,3.847 l -0.017,0.012 a 0.567,0.567 0 0 0 -0.207,0.661 l 0.01,0.026 c 0.209,0.562 0.197,1.374 -0.041,2.035 -0.233,0.686 -0.671,1.313 -1.211,1.855 a 8.29,8.29 0 0 1 -1.115,0.915 c 0.556,-1.501 0.896,-3.087 0.985,-4.686 0.136,-2.197 -0.15,-4.371 -0.682,-6.472 0.098,-0.072 0.201,-0.135 0.281,-0.233 l 0.314,-0.391 c 0.348,-0.431 0.486,-0.739 0.658,-1.118 0.154,-0.364 0.271,-0.735 0.35,-1.109 0.159,-0.749 0.17,-1.505 0.069,-2.219 -0.179,-1.262 -0.686,-2.368 -1.308,-3.345 a 10.837,10.837 0 0 0 2.016,-2.05 c 0.681,-0.915 1.207,-1.966 1.456,-3.09 A 7.01,7.01 0 0 0 91.876,50.412 C 91.581,49.32 91.052,48.321 90.423,47.415 a 0.181,0.181 0 0 0 -0.241,-0.05 0.18,0.18 0 0 0 -0.058,0.246 c 0.56,0.914 1.007,1.899 1.222,2.929 a 6.38,6.38 0 0 1 -0.087,3.081 c -0.282,0.992 -0.806,1.904 -1.471,2.698 a 9.761,9.761 0 0 1 -2.32,2.013 0.56,0.56 0 0 0 -0.21,0.72 l 0.013,0.027 c 0.458,1.093 0.717,2.242 0.631,3.295 a 4.27,4.27 0 0 1 -0.37,1.459 c -0.089,0.196 -0.2,0.375 -0.318,0.543 -0.013,-0.034 -0.023,-0.069 -0.036,-0.104 -0.562,-1.514 -1.253,-2.969 -2.007,-4.391 a 34.958,34.958 0 0 0 -2.064,-3.402 c 0.41,-1.82 0.621,-3.703 0.501,-5.589 a 16.233,16.233 0 0 0 -1.69,-6.296 C 80.94,42.656 79.595,40.96 78.049,39.538 a 20.823,20.823 0 0 0 -3.701,-2.705 0.876,0.876 0 0 0 -0.604,-0.319 c -0.21,-0.11 -0.413,-0.229 -0.628,-0.332 A 22.727,22.727 0 0 0 71.35,30.238 C 70.417,28.277 69.223,26.39 67.689,24.788 66.169,23.18 64.399,21.777 62.422,20.75 A 19.876,19.876 0 0 0 59.356,19.432 25.497,25.497 0 0 0 58.16,19.084 c 0.034,-0.175 0.049,-0.356 0.024,-0.542 -0.051,-0.396 0.034,-1.044 0.185,-1.507 0.158,-0.492 0.397,-0.915 0.764,-1.231 0.361,-0.319 0.883,-0.525 1.489,-0.589 0.605,-0.064 1.273,10e-4 1.937,0.145 l 0.007,0.001 a 0.436,0.436 0 0 0 0.302,-0.807 c -0.647,-0.357 -1.352,-0.663 -2.15,-0.821 -0.791,-0.157 -1.714,-0.141 -2.59,0.22 -0.878,0.352 -1.615,1.017 -2.138,1.749 -0.055,0.076 -0.1,0.155 -0.15,0.232 -0.05,-0.095 -0.094,-0.191 -0.146,-0.285 -0.739,-1.318 -1.787,-2.53 -3.1,-3.354 -1.309,-0.831 -2.82,-1.244 -4.284,-1.315 a 11.498,11.498 0 0 0 -3.62,0.42 0.773,0.773 0 0 0 -0.26,-0.223 c 0.015,0.008 -0.071,-0.034 -0.127,-0.051 L 44.259,11.113 44.191,11.095 44.143,11.084 A 5.854,5.854 0 0 0 43.233,10.232 10.686,10.686 0 0 0 41.48,9.282 C 40.9,9.022 40.304,8.838 39.708,8.66 A 32.564,32.564 0 0 1 43.09,7.71 c 2.171,-0.471 4.386,-0.722 6.565,-0.632 2.176,0.085 4.318,0.53 6.228,1.427 1.914,0.889 3.564,2.24 4.855,3.894 l 0.003,0.003 0.038,0.042 c 0.164,0.183 0.385,0.318 0.644,0.376 2.571,0.579 5.212,1.475 7.701,2.541 2.499,1.079 4.908,2.374 7.121,3.943 2.209,1.566 4.224,3.417 5.828,5.584 1.607,2.161 2.777,4.648 3.35,7.296 l 0.002,0.007 c 0.021,0.12 0.084,0.233 0.185,0.316 l 0.033,0.027 0.133,0.113 -3.101,8.922 c 0,0 4.572,-1.662 3.445,-8.628 a 45.8,45.8 0 0 1 4.231,4.069 38.755,38.755 0 0 1 1.678,1.98 1.748,1.748 0 0 0 -0.671,1.061 c -0.161,0.817 -0.377,1.609 -0.681,2.291 -0.308,0.679 -0.697,1.22 -1.159,1.472 -0.448,0.271 -1.146,0.266 -1.887,-0.031 -0.729,-0.282 -1.48,-0.794 -2.096,-1.355 L 85.506,42.4 a 0.558,0.558 0 0 0 -0.83,0.736 c 0.59,0.829 1.255,1.545 2.142,2.152 0.854,0.587 2.106,1.058 3.433,0.716 1.313,-0.339 2.234,-1.261 2.895,-2.125 0.426,-0.571 0.77,-1.161 1.073,-1.756 1.063,1.804 1.872,3.761 1.997,5.665 0.146,1.908 -0.515,3.641 -1.788,5.004 l -0.006,0.007 -0.103,0.145 a 1.47,1.47 0 0 0 0.123,1.855 c 0.492,0.527 1.042,1.318 1.452,2.059 0.424,0.763 0.769,1.569 1.012,2.401 a 9.72,9.72 0 0 1 0.121,5.142 z"
               inkscape:connector-curvature="0"
               style="fill:url(#linearGradient3790)" />
            <path
               id="path3725"
               d="m 15.864,31.79 c -0.105,-0.064 -0.215,-0.11 -0.321,-0.169 a 0.884,0.884 0 0 0 -0.067,-0.618 l -0.003,-0.007 a 9.734,9.734 0 0 1 -0.633,-1.58 8.168,8.168 0 0 1 -0.339,-1.68 4.876,4.876 0 0 1 0.117,-1.66 c 0.14,-0.532 0.405,-1.024 0.792,-1.435 l 0.005,-0.005 a 0.349,0.349 0 0 0 -0.467,-0.513 c -0.536,0.418 -0.969,0.99 -1.241,1.627 -0.272,0.637 -0.406,1.32 -0.445,1.992 a 9.525,9.525 0 0 0 0.103,2 c 0.059,0.376 0.135,0.741 0.227,1.108 A 9.015,9.015 0 0 0 12.027,30.583 0.307,0.307 0 0 0 11.9,31.177 l 0.021,0.008 c 1.154,0.417 2.272,0.99 3.2,1.693 0.925,0.714 1.637,1.604 1.924,2.646 0.307,1.035 0.208,2.203 -0.087,3.357 -0.305,1.156 -0.777,2.315 -1.295,3.481 a 0.263,0.263 0 0 0 0.063,0.3 0.258,0.258 0 0 0 0.363,-0.022 c 0.865,-0.976 1.625,-2.081 2.109,-3.357 0.49,-1.257 0.722,-2.744 0.304,-4.179 -0.406,-1.438 -1.455,-2.609 -2.638,-3.314 z m 21.985,-9.105 0.232,-0.508 c -0.777,-0.436 -1.63,-0.781 -2.549,-0.949 a 6.88,6.88 0 0 0 -2.833,0.07 7.996,7.996 0 0 0 -2.635,1.182 9.494,9.494 0 0 0 -1.677,1.448 c -1.921,-0.056 -3.93,0.232 -5.646,1.231 a 7.219,7.219 0 0 0 -2.36,2.201 c -0.593,0.89 -0.995,1.863 -1.154,2.907 l 0.402,0.076 a 6.574,6.574 0 0 1 1.452,-2.429 6.097,6.097 0 0 1 2.265,-1.519 c 1.698,-0.646 3.588,-0.542 5.387,-0.117 l 0.798,0.188 0.371,-0.734 c 0.289,-0.572 0.808,-1.251 1.344,-1.768 a 6.337,6.337 0 0 1 1.895,-1.284 c 1.412,-0.627 3.123,-0.574 4.708,0.005 z m 10.292,9.69 a 9.205,9.205 0 0 1 1.662,0.572 18.451,18.451 0 0 0 -0.525,3.359 c -10e-4,0.02 -0.002,0.042 -10e-4,0.063 0.002,0.508 0.357,0.919 0.866,0.917 C 50.651,37.285 51,36.871 51,36.362 v -0.036 c 0,-1.39 0.227,-2.881 0.596,-4.25 0.373,-1.37 1.002,-2.695 1.988,-3.609 0.973,-0.928 2.388,-1.284 3.804,-1.108 1.419,0.165 2.827,0.718 4.147,1.402 a 0.314,0.314 0 0 0 0.41,-0.113 0.307,0.307 0 0 0 -0.103,-0.423 c -1.312,-0.793 -2.727,-1.483 -4.309,-1.778 -1.557,-0.316 -3.398,-0.02 -4.719,1.087 -1.303,1.059 -2.073,2.54 -2.596,4.012 a 10.59,10.59 0 0 0 -1.856,-0.409 10.14,10.14 0 0 0 -2.564,0 8.673,8.673 0 0 0 -2.475,0.704 c -0.003,-0.005 -0.002,-0.012 -0.005,-0.018 -0.443,-0.837 -1.004,-1.396 -1.646,-1.92 a 8.201,8.201 0 0 0 -2.089,-1.19 C 38.102,28.129 36.532,27.94 35.002,27.965 a 0.25,0.25 0 0 0 -0.014,0.499 c 1.479,0.11 2.941,0.437 4.22,1.085 a 7.161,7.161 0 0 1 1.729,1.206 c 0.491,0.463 0.943,1.067 1.155,1.592 l 0.016,0.041 a 0.862,0.862 0 0 0 0.029,0.062 c 0.006,0.011 0.017,0.017 0.023,0.028 a 9.192,9.192 0 0 0 -0.93,0.675 0.234,0.234 0 0 0 0.281,0.374 c 1.315,-0.875 2.838,-1.372 4.367,-1.397 a 8.908,8.908 0 0 1 2.263,0.245 z m -7.998,-16.377 -0.015,0.009 c 0.007,-0.002 -0.01,0.005 0.016,-0.004 0.054,-0.019 0.122,-0.056 0.11,-0.049 l -0.058,0.021 z"
               inkscape:connector-curvature="0"
               style="fill:url(#linearGradient3792)" />
            <path
               id="path3727"
               d="m 40.259,15.951 -0.004,0.002 0.075,-0.027 a 3.974,3.974 0 0 1 0.922,-0.178 c 0.423,-0.03 0.847,0.011 1.255,0.128 0.816,0.23 1.565,0.799 2.146,1.583 1.176,1.586 1.725,3.742 2.047,5.852 0.02,0.127 0.129,0.227 0.262,0.227 a 0.265,0.265 0 0 0 0.264,-0.265 c -0.002,-1.099 -0.063,-2.208 -0.249,-3.318 -0.188,-1.108 -0.491,-2.229 -1.063,-3.291 -0.559,-1.054 -1.463,-2.06 -2.683,-2.623 a 5.71,5.71 0 0 0 -1.923,-0.506 6.17,6.17 0 0 0 -1.504,0.055 l -0.262,0.05 -0.142,0.034 -0.082,0.023 -0.064,0.021 c -0.076,0.027 -0.183,0.084 -0.161,0.071 a 1.23,1.23 0 0 0 -0.499,1.664 1.231,1.231 0 0 0 1.665,0.498 z m 3.544,-3.356 -0.014,-0.005 0.018,0.007 z M 12.039,48.992 a 13.917,13.917 0 0 1 -0.88,-3.979 c -0.108,-1.363 -0.029,-2.752 0.151,-4.147 0.194,-1.392 0.49,-2.8 0.864,-4.205 l 0.004,-0.014 a 0.23,0.23 0 0 0 -0.406,-0.198 c -0.924,1.226 -1.541,2.629 -1.958,4.104 -0.417,1.475 -0.589,3.036 -0.476,4.599 0.126,1.558 0.541,3.118 1.297,4.495 a 9.795,9.795 0 0 0 3.049,3.432 0.288,0.288 0 0 0 0.322,-0.003 0.281,0.281 0 0 0 0.066,-0.392 c -0.836,-1.198 -1.544,-2.408 -2.033,-3.692 z m 19.784,5.77 A 4.669,4.669 0 0 1 31.152,53.303 6.603,6.603 0 0 1 30.908,51.65 l -1.127,-1.375 a 5.987,5.987 0 0 1 -2.614,-0.834 c -0.812,-0.484 -1.539,-1.184 -2.147,-2.007 -0.611,-0.823 -1.107,-1.766 -1.498,-2.76 a 14.33,14.33 0 0 1 -0.503,-1.53 c -0.069,-0.26 -0.131,-0.522 -0.182,-0.785 l -0.065,-0.392 -0.021,-0.189 c -0.01,-0.043 0.005,-0.159 -0.02,-0.088 a 0.283,0.283 0 0 0 -0.512,-0.24 c -0.077,0.201 -0.119,0.228 -0.136,0.322 L 22,41.997 v 0.436 c 0,0.288 0.096,0.573 0.123,0.858 0.055,0.569 0.178,1.136 0.297,1.699 a 13.453,13.453 0 0 0 1.167,3.309 c 0.543,1.063 1.288,2.082 2.26,2.913 a 8.364,8.364 0 0 0 2.385,1.421 c 0.062,0.483 0.16,0.94 0.296,1.425 a 7.385,7.385 0 0 0 1.097,2.288 5.776,5.776 0 0 0 2.028,1.758 c 0.45,0.233 0.922,0.394 1.396,0.506 0.044,0.263 0.099,0.523 0.17,0.795 0.187,0.673 0.481,1.35 0.942,1.941 a 3.877,3.877 0 0 0 1.789,1.297 c 0.687,0.233 1.376,0.266 2.015,0.204 0.258,-0.025 0.472,-0.092 0.502,-0.361 C 38.502,62.178 38.281,62 37.974,62 h -0.009 c -1.075,0 -1.898,-0.769 -2.219,-1.553 -0.175,-0.388 -0.264,-0.906 -0.283,-1.38 -0.02,-0.453 0.031,-1.046 0.131,-1.411 l -1.222,-1.513 c -1.106,-0.096 -1.97,-0.551 -2.549,-1.381 z m -5.636,6.131 -3.738,-4.179 c 0,0 -0.164,4.458 3.738,4.179 z m 27.7,2.607 A 0.193,0.193 0 0 0 53.86,63.117 c -0.778,-0.012 -1.536,-0.227 -2.047,-0.698 -0.517,-0.465 -0.795,-1.136 -0.928,-1.846 -0.134,-0.714 -0.133,-1.47 -0.066,-2.221 0.038,-0.408 0.101,-0.826 0.179,-1.235 0.143,-0.032 0.281,-0.067 0.416,-0.105 1.069,-0.302 1.999,-0.782 2.863,-1.314 a 18.15,18.15 0 0 0 4.411,-3.968 0.138,0.138 0 0 0 0.019,-0.136 0.133,0.133 0 0 0 -0.175,-0.071 c -1.814,0.761 -3.511,1.628 -5.219,2.266 -0.844,0.326 -1.691,0.596 -2.486,0.738 -0.796,0.141 -1.523,0.117 -2.005,-0.101 -0.474,-0.209 -0.859,-0.624 -1.174,-1.31 -0.31,-0.671 -0.75,-1.509 -0.896,-2.378 C 46.47,48.981 47,47.089 46,45.129 v -0.006 c 0,-0.046 0.209,-0.089 0.165,-0.111 -0.066,-0.034 -0.029,-0.008 -0.064,0.06 -0.917,1.787 -1.357,3.735 -1.432,5.804 -0.025,1.036 0.096,2.117 0.496,3.229 0.374,1.084 1.265,2.312 2.593,2.83 0.453,0.184 0.911,0.28 1.35,0.321 0.004,0.366 0.019,0.729 0.048,1.102 0.076,0.858 0.227,1.725 0.543,2.562 0.31,0.827 0.834,1.66 1.635,2.153 0.799,0.499 1.736,0.558 2.553,0.427 z M 67.494,47.189 c 1.044,-0.742 2.197,-1.327 3.384,-1.559 1.186,-0.239 2.366,-0.067 3.37,0.467 1.012,0.53 1.861,1.374 2.581,2.331 l 0.201,0.177 a 1.051,1.051 0 0 0 1.732,-0.937 C 78.63,46.736 78.391,45.98 78.057,45.184 77.722,44.408 77.272,43.667 76.687,43.038 a 5.199,5.199 0 0 0 -2.11,-1.396 c -0.791,-0.277 -1.618,-0.328 -2.399,-0.258 a 0.19,0.19 0 0 0 -0.169,0.169 0.185,0.185 0 0 0 0.169,0.202 c 0.741,0.083 1.457,0.283 2.058,0.643 a 4.12,4.12 0 0 1 1.436,1.432 c 0.262,0.431 0.44,0.908 0.582,1.398 a 7.941,7.941 0 0 0 -1.358,-0.654 6.431,6.431 0 0 0 -4.309,-0.007 c -1.343,0.47 -2.471,1.281 -3.441,2.196 a 15.471,15.471 0 0 0 -2.492,3.075 15.113,15.113 0 0 1 2.84,-2.649 z m -2.297,21.587 a 0.142,0.142 0 0 0 0.116,0.021 0.136,0.136 0 0 0 0.095,-0.166 l -0.004,-0.013 c -0.705,-2.55 -0.982,-4.852 -0.618,-7.087 0.179,-1.116 0.506,-2.216 0.964,-3.32 0.462,-1.104 1.047,-2.2 1.643,-3.402 A 0.213,0.213 0 0 0 67.391,54.62 0.206,0.206 0 0 0 67.112,54.532 c -1.214,0.633 -2.249,1.569 -3.07,2.703 a 9.137,9.137 0 0 0 -1.637,3.918 8.462,8.462 0 0 0 0.399,4.252 c 0.48,1.328 1.26,2.54 2.393,3.371 z m 9.961,14.6 -0.005,0.002 c -1.401,0.363 -2.856,0.517 -4.126,0.229 A 4.233,4.233 0 0 1 69.365,82.854 3.334,3.334 0 0 1 68.53,81.921 c -0.058,-0.096 -0.141,-0.27 -0.124,-0.271 a 0.628,0.628 0 1 0 -0.262,-1.208 l -1.287,0.525 c -1.558,0.635 -3.199,1.056 -4.831,1.024 a 7.096,7.096 0 0 1 -2.375,-0.439 c -0.74,-0.274 -1.487,-0.742 -1.973,-1.28 l -0.046,-0.051 a 0.555,0.555 0 0 0 -0.871,0.685 c 0.612,0.895 1.388,1.489 2.269,1.977 a 8.728,8.728 0 0 0 2.823,0.923 c 1.654,0.252 3.312,0.102 4.902,-0.237 0.104,0.11 0.204,0.225 0.314,0.325 0.352,0.322 0.74,0.592 1.149,0.81 a 6.247,6.247 0 0 0 2.567,0.709 c 1.729,0.098 3.304,-0.37 4.731,-0.983 A 0.557,0.557 0 0 0 75.158,83.376 Z M 56.975,73.892 c 1.367,-0.022 2.71,-0.377 3.949,-0.935 l 0.086,0.214 c 0.272,0.619 0.628,1.22 1.097,1.75 0.471,0.525 1.066,0.978 1.736,1.227 0.664,0.265 1.367,0.316 2.015,0.264 a 0.559,0.559 0 0 0 0.016,-1.113 l -0.016,-0.002 c -1.047,-0.115 -1.84,-0.661 -2.284,-1.475 a 4.728,4.728 0 0 1 -0.485,-1.35 c -0.097,-0.466 -0.148,-1.032 -0.12,-1.429 a 1.178,1.178 0 0 0 -1.732,-1.12 l -0.284,0.153 h -0.001 c -1.196,1.003 -2.596,1.745 -4.126,1.987 A 7.119,7.119 0 0 1 53.35,71.758 5.53,5.53 0 0 1 52.809,71.534 l -0.245,-0.128 -0.1,-0.06 -0.005,-0.002 a 0.55,0.55 0 0 0 -0.621,-0.203 c -0.009,0.003 0.005,-0.003 -0.022,0.007 a 0.564,0.564 0 0 0 -0.368,0.573 l 0.006,0.052 c 0.01,0.065 0.042,0.148 0.065,0.189 l 0.033,0.053 c 0.051,0.073 0.062,0.081 0.088,0.11 l 0.1,0.098 0.161,0.135 c 0.103,0.08 0.203,0.151 0.305,0.219 0.202,0.135 0.409,0.254 0.62,0.364 a 8.28,8.28 0 0 0 2.098,0.748 5.763,5.763 0 0 0 -0.846,2.369 4.851,4.851 0 0 0 0.213,2.047 c 0.218,0.641 0.55,1.219 0.945,1.729 a 0.151,0.151 0 0 0 0.19,0.042 0.15,0.15 0 0 0 0.063,-0.204 c -0.577,-1.097 -0.781,-2.343 -0.432,-3.42 a 4.583,4.583 0 0 1 0.792,-1.474 c 0.256,-0.325 0.571,-0.643 0.887,-0.893 0.08,0.003 0.16,0.009 0.239,0.007 z m -4.777,-1.694 -0.003,0.001 c 0.008,-0.003 0.013,-0.009 0.021,-0.012 -0.005,0.002 -0.013,0.01 -0.018,0.011 z m 0.338,-0.35 0.005,-0.02 c -10e-4,0.005 -10e-4,0.011 -0.003,0.016 z M 82.662,66.695 C 82.354,66.67 82,66.898 82,67.206 v 0.006 c 0,1.526 -0.463,3.033 -1.279,4.107 -0.406,0.534 -0.875,0.948 -1.434,1.215 a 3.819,3.819 0 0 1 -0.856,0.299 c -0.274,0.062 -0.648,0.096 -0.801,0.069 A 1.404,1.404 0 0 0 77.286,72.89 c 0.023,-0.153 0.066,-0.301 0.083,-0.455 0.206,-1.78 -0.146,-3.625 -0.856,-5.259 -0.662,-1.529 -1.595,-2.898 -2.64,-4.136 a 5.703,5.703 0 0 1 -0.107,-2.624 c 0.206,-1.075 0.803,-2.116 1.699,-2.953 a 0.239,0.239 0 0 0 0.054,-0.271 0.236,0.236 0 0 0 -0.312,-0.116 6.614,6.614 0 0 0 -2.993,2.715 7.658,7.658 0 0 0 -0.795,2.009 c -0.162,0.736 -0.272,1.385 -0.208,2.285 a 0.56,0.56 0 0 0 0.09,0.266 l 0.286,0.431 c 1.129,1.013 2.131,2.145 2.875,3.413 0.741,1.265 1.198,2.679 1.212,4.149 0.053,2.959 -1.687,5.936 -4.022,8.037 l -0.014,0.013 a 0.259,0.259 0 0 0 0.32,0.405 14.154,14.154 0 0 0 3.547,-3.536 c 0.419,-0.604 0.778,-1.267 1.08,-1.958 0.263,0.202 0.599,0.312 0.956,0.276 l 0.14,-0.014 c 0.646,-0.064 1.052,-0.203 1.536,-0.387 a 6.122,6.122 0 0 0 3.171,-2.87 c 0.862,-1.673 0.937,-3.454 0.815,-5.1 -0.019,-0.269 -0.263,-0.491 -0.541,-0.515 z m 8.189,-1.62 c 0,0 5.86,0.876 3.385,-6.465 z M 82.852,31.794 c -0.121,-1.424 -0.629,-2.895 -1.55,-4.04 -0.913,-1.152 -2.143,-1.933 -3.396,-2.419 a 11.68,11.68 0 0 0 -2.534,-0.648 c -0.169,-1.105 -0.703,-2.093 -1.33,-2.8 -0.809,-0.934 -1.749,-1.588 -2.705,-2.134 a 16.396,16.396 0 0 0 -2.989,-1.304 0.559,0.559 0 0 0 -0.444,1.019 l 0.022,0.013 c 0.852,0.475 1.692,1.06 2.426,1.69 0.733,0.633 1.385,1.345 1.794,2.085 0.418,0.746 0.523,1.462 0.346,2.05 -0.161,0.596 -0.612,1.188 -1.221,1.74 a 1.796,1.796 0 0 0 0.151,2.782 1.794,1.794 0 0 0 2.507,-0.398 l 0.037,-0.051 c 0.666,-0.917 1.277,-2.054 1.426,-3.374 1.777,0.526 3.425,1.503 4.272,2.917 1.106,1.78 0.824,4.079 0.038,6.196 a 1.458,1.458 0 1 0 2.787,0.841 l 0.004,-0.018 c 0.311,-1.318 0.487,-2.715 0.359,-4.147 z"
               inkscape:connector-curvature="0"
               style="fill:url(#linearGradient3794)" />
          </g>
        </switch>
      </g>
      <g
         transform="matrix(0.28959834,0,0,0.28959834,125.71718,59.391843)"
         id="55b13945-0db6-4461-80de-ef4ddbe2410a"
         data-v-423bf9ae=""
         style="fill:#000000">
        <path
           id="path3734"
           d="M -40.507428,29.484672 V 26.228247 H -51.74115 v 29.875689 h 1.76051 V 43.147761 h 8.433673 V 39.856568 H -49.98064 V 29.484672 Z m 21.092568,-3.615676 c -4.711456,0 -7.880372,6.802571 -7.880372,15.308684 0,8.482934 3.168916,15.273917 7.880372,15.273917 4.728222,0 7.897137,-6.790983 7.897137,-15.273917 0,-8.506113 -3.168915,-15.308684 -7.897137,-15.308684 z m 0,27.302996 c -3.772518,0 -6.119863,-5.284451 -6.119863,-11.994312 0,-6.733039 2.347345,-12.017491 6.119863,-12.017491 3.789285,0 6.13663,5.284452 6.13663,12.017491 0,6.709861 -2.347345,11.994312 -6.13663,11.994312 z M 4.7963225,44.631116 h 5.3988935 l 3.755751,11.47282 h 2.079077 l -4.07432,-12.052257 c 1.726975,-0.776444 3.755751,-2.711757 3.755751,-8.482935 0,-5.666877 -2.045542,-9.340497 -5.247992,-9.340497 H 3.0358155 v 29.875689 h 1.760507 z m 0,-15.181209 h 5.4659605 c 2.196443,0 3.688684,2.317743 3.688684,6.118837 0,4.647072 -2.11261,5.863887 -3.789285,5.863887 H 4.7963225 Z M 58.852317,26.228247 V 51.364154 L 49.244971,26.228247 h -2.045544 v 29.875689 h 1.760509 V 30.863729 l 9.607345,25.240207 h 2.045544 V 26.228247 Z m 28.721444,3.256425 V 26.228247 H 76.155593 V 56.103936 H 87.573761 V 52.847508 H 77.916107 V 42.78851 h 8.634874 V 39.497317 H 77.916107 V 29.484672 Z m 25.854319,-3.256425 v 17.104932 c 0,6.930048 -2.39764,9.838813 -4.86236,9.838813 -2.46472,0 -4.82883,-2.908765 -4.82883,-9.838813 V 26.228247 h -1.7605 V 43.24047 c 0,7.926676 2.71621,13.211127 6.58933,13.211127 3.88989,0 6.62286,-5.307628 6.62286,-13.211127 V 26.228247 Z m 18.86259,18.402869 h 5.39889 l 3.75576,11.47282 h 2.09584 l -4.09109,-12.052257 c 1.74374,-0.776444 3.75575,-2.711757 3.75575,-8.482935 0,-5.666877 -2.02877,-9.340497 -5.23123,-9.340497 h -7.44443 v 29.875689 h 1.76051 z m 0,-15.181209 h 5.48272 c 2.19645,0 3.67193,2.317743 3.67193,6.118837 0,4.647072 -2.11262,5.863887 -3.77253,5.863887 h -5.38212 z m 32.59456,-3.580911 c -4.72823,0 -7.89714,6.802571 -7.89714,15.308684 0,8.482934 3.16891,15.273917 7.89714,15.273917 4.71145,0 7.88038,-6.790983 7.88038,-15.273917 0,-8.506113 -3.16893,-15.308684 -7.88038,-15.308684 z m 0,27.302996 c -3.78928,0 -6.13663,-5.284451 -6.13663,-11.994312 0,-6.733039 2.34735,-12.017491 6.13663,-12.017491 3.77252,0 6.11986,5.284452 6.11986,12.017491 0,6.709861 -2.34734,11.994312 -6.11986,11.994312 z M 188.35868,34.08539 c 0,-1.993257 0.6036,-5.052675 4.12461,-5.052675 2.83357,0 4.15815,2.375685 4.34259,5.377159 h 1.81082 c -0.15091,-4.484829 -2.02879,-8.540878 -6.15341,-8.540878 -3.88987,0 -5.85159,3.383903 -5.85159,8.25116 0,10.244417 10.64688,6.547621 10.64688,13.860095 0,3.511379 -1.64314,5.284452 -4.27551,5.284452 -2.69946,0 -4.87912,-1.773073 -4.9965,-6.095661 h -1.84433 c 0.23472,5.353983 2.1126,9.282555 6.72346,9.282555 3.82282,0 6.15339,-3.05942 6.15339,-8.598822 0,-10.441424 -10.68041,-6.837337 -10.68041,-13.767385 z m 31.80652,19.086602 c -3.78929,0 -5.9019,-5.284451 -5.9019,-11.994312 0,-6.733039 2.11261,-12.017491 5.9019,-12.017491 2.54854,0 4.24198,2.352508 5.04679,5.991363 h 1.84435 c -0.98925,-5.446693 -3.52102,-9.282556 -7.04205,-9.282556 -4.66115,0 -7.5115,6.802571 -7.5115,15.308684 0,8.482934 2.85035,15.273917 7.5115,15.273917 3.52103,0 6.0528,-3.835862 7.04205,-9.282555 h -1.84435 c -0.80481,3.650444 -2.49825,6.00295 -5.04679,6.00295 z m 23.02073,-26.943745 h -1.76049 v 29.875689 h 1.76049 z m 26.97771,3.256425 V 26.228247 H 258.7287 v 29.875689 h 11.43494 v -3.256428 h -9.67442 V 42.78851 h 8.63487 v -3.291193 h -8.63487 V 29.484672 Z m 26.20642,-3.256425 v 25.135907 l -9.59058,-25.135907 h -2.04554 v 29.875689 h 1.7605 V 30.863729 l 9.60735,25.240207 h 2.02879 V 26.228247 Z m 23.97645,26.943745 c -3.78928,0 -5.90189,-5.284451 -5.90189,-11.994312 0,-6.733039 2.11261,-12.017491 5.90189,-12.017491 2.54855,0 4.24198,2.352508 5.0468,5.991363 h 1.84433 c -0.97247,-5.446693 -3.52101,-9.282556 -7.04203,-9.282556 -4.66116,0 -7.5115,6.802571 -7.5115,15.308684 0,8.482934 2.85034,15.273917 7.5115,15.273917 3.52102,0 6.06956,-3.835862 7.04203,-9.282555 h -1.84433 c -0.80482,3.650444 -2.49825,6.00295 -5.0468,6.00295 z m 32.69515,-23.68732 v -3.256425 h -11.43492 v 29.875689 h 11.43492 v -3.256428 h -9.6744 V 42.78851 h 8.63487 v -3.291193 h -8.63487 V 29.484672 Z"
           inkscape:connector-curvature="0"
           style="stroke-width:2.32468581" />
      </g>
    </g>
  </g>
</svg>
